<?xml version="1.0" encoding="UTF-8" standalone="no"?>
<!-- Created with Inkscape (http://www.inkscape.org/) -->

<svg
   xmlns:dc="http://purl.org/dc/elements/1.1/"
   xmlns:cc="http://creativecommons.org/ns#"
   xmlns:rdf="http://www.w3.org/1999/02/22-rdf-syntax-ns#"
   xmlns:svg="http://www.w3.org/2000/svg"
   xmlns="http://www.w3.org/2000/svg"
   xmlns:xlink="http://www.w3.org/1999/xlink"
   xmlns:sodipodi="http://sodipodi.sourceforge.net/DTD/sodipodi-0.dtd"
   xmlns:inkscape="http://www.inkscape.org/namespaces/inkscape"
   sodipodi:docname="Microfono-01.svg"
   inkscape:version="0.91 r"
   version="1.1"
   id="svg2"
   height="1919.9872"
   width="900">
  <defs
     id="defs4">
    <linearGradient
       inkscape:collect="always"
       id="linearGradient7591">
      <stop
         style="stop-color:#909090;stop-opacity:1;"
         offset="0"
         id="stop7593" />
      <stop
         id="stop7611"
         offset="0.09148541"
         style="stop-color:#808080;stop-opacity:1" />
      <stop
         id="stop7605"
         offset="0.18297082"
         style="stop-color:#909090;stop-opacity:1" />
      <stop
         id="stop7601"
         offset="0.2559858"
         style="stop-color:#e6e6e6;stop-opacity:1" />
      <stop
         id="stop7599"
         offset="0.29492006"
         style="stop-color:#ececec;stop-opacity:1" />
      <stop
         style="stop-color:#cccccc;stop-opacity:1"
         offset="0.33032393"
         id="stop7603" />
      <stop
         id="stop7607"
         offset="0.4275125"
         style="stop-color:#909090;stop-opacity:1" />
      <stop
         style="stop-color:#909090;stop-opacity:1;"
         offset="0.66679001"
         id="stop7609" />
      <stop
         style="stop-color:#7f7a81;stop-opacity:1"
         offset="1"
         id="stop7595" />
    </linearGradient>
    <linearGradient
       inkscape:collect="always"
       id="linearGradient7558">
      <stop
         style="stop-color:#bbb9b9;stop-opacity:1;"
         offset="0"
         id="stop7560" />
      <stop
         id="stop7629"
         offset="0.645199"
         style="stop-color:#808080;stop-opacity:1" />
      <stop
         id="stop7568"
         offset="0.95996457"
         style="stop-color:#bbb9b9;stop-opacity:1" />
      <stop
         id="stop7566"
         offset="0.9810257"
         style="stop-color:#f2f2f2;stop-opacity:1" />
      <stop
         style="stop-color:#bbb9b9;stop-opacity:1"
         offset="1"
         id="stop7562" />
    </linearGradient>
    <linearGradient
       inkscape:collect="always"
       id="linearGradient7548">
      <stop
         style="stop-color:#43425c;stop-opacity:1;"
         offset="0"
         id="stop7550" />
      <stop
         id="stop7556"
         offset="0.5"
         style="stop-color:#43425c;stop-opacity:0" />
      <stop
         style="stop-color:#43425c;stop-opacity:1"
         offset="1"
         id="stop7552" />
    </linearGradient>
    <linearGradient
       inkscape:collect="always"
       id="linearGradient7323">
      <stop
         style="stop-color:#635d5d;stop-opacity:1;"
         offset="0"
         id="stop7325" />
      <stop
         id="stop7331"
         offset="0.7647059"
         style="stop-color:#cccccc;stop-opacity:1" />
      <stop
         style="stop-color:#635d5d;stop-opacity:1"
         offset="1"
         id="stop7327" />
    </linearGradient>
    <linearGradient
       inkscape:collect="always"
       id="linearGradient7225">
      <stop
         style="stop-color:#8c8e8a;stop-opacity:1;"
         offset="0"
         id="stop7227" />
      <stop
         id="stop7235"
         offset="0.33875167"
         style="stop-color:#c5c6c4;stop-opacity:1;" />
      <stop
         id="stop7233"
         offset="0.5"
         style="stop-color:#ffffff;stop-opacity:1" />
      <stop
         style="stop-color:#b7b8b6;stop-opacity:1;"
         offset="0.69821703"
         id="stop7237" />
      <stop
         style="stop-color:#8c8e8a;stop-opacity:0.99823529"
         offset="1"
         id="stop7229" />
    </linearGradient>
    <linearGradient
       inkscape:collect="always"
       id="linearGradient7209">
      <stop
         style="stop-color:#635d5d;stop-opacity:1;"
         offset="0"
         id="stop7211" />
      <stop
         id="stop7217"
         offset="0.20499353"
         style="stop-color:#f5faf7;stop-opacity:1" />
      <stop
         style="stop-color:#d0d2d0;stop-opacity:1;"
         offset="0.50132185"
         id="stop7223" />
      <stop
         style="stop-color:#acabaa;stop-opacity:1;"
         offset="0.57916743"
         id="stop7221" />
      <stop
         style="stop-color:#635d5d;stop-opacity:1"
         offset="0.88993895"
         id="stop7219" />
      <stop
         style="stop-color:#899999;stop-opacity:1"
         offset="1"
         id="stop7213" />
    </linearGradient>
    <linearGradient
       inkscape:collect="always"
       xlink:href="#linearGradient7209"
       id="linearGradient7215"
       x1="6460"
       y1="527.37476"
       x2="7060"
       y2="527.37476"
       gradientUnits="userSpaceOnUse" />
    <linearGradient
       inkscape:collect="always"
       xlink:href="#linearGradient7225"
       id="linearGradient7231"
       x1="6740"
       y1="52.625"
       x2="6780"
       y2="52.625"
       gradientUnits="userSpaceOnUse" />
    <linearGradient
       inkscape:collect="always"
       xlink:href="#linearGradient7225"
       id="linearGradient7245"
       x1="6799.5"
       y1="52.642593"
       x2="6840.5"
       y2="52.642593"
       gradientUnits="userSpaceOnUse" />
    <linearGradient
       inkscape:collect="always"
       xlink:href="#linearGradient7225"
       id="linearGradient7253"
       x1="6859.5"
       y1="57.61171"
       x2="6900.5"
       y2="57.61171"
       gradientUnits="userSpaceOnUse" />
    <linearGradient
       inkscape:collect="always"
       xlink:href="#linearGradient7225"
       id="linearGradient7261"
       x1="6919.5"
       y1="79.072357"
       x2="6960.5"
       y2="79.072357"
       gradientUnits="userSpaceOnUse" />
    <linearGradient
       inkscape:collect="always"
       xlink:href="#linearGradient7225"
       id="linearGradient7269"
       x1="6679"
       y1="52.642593"
       x2="6720"
       y2="52.642593"
       gradientUnits="userSpaceOnUse" />
    <linearGradient
       inkscape:collect="always"
       xlink:href="#linearGradient7225"
       id="linearGradient7277"
       x1="6619"
       y1="57.61171"
       x2="6660"
       y2="57.61171"
       gradientUnits="userSpaceOnUse" />
    <linearGradient
       inkscape:collect="always"
       xlink:href="#linearGradient7225"
       id="linearGradient7285"
       x1="6559"
       y1="79.072357"
       x2="6600"
       y2="79.072357"
       gradientUnits="userSpaceOnUse" />
    <linearGradient
       inkscape:collect="always"
       xlink:href="#linearGradient7225"
       id="linearGradient7293"
       x1="6481"
       y1="298.23727"
       x2="6481"
       y2="316.07364"
       gradientUnits="userSpaceOnUse" />
    <linearGradient
       inkscape:collect="always"
       xlink:href="#linearGradient7225"
       id="linearGradient7301"
       x1="6481"
       y1="718.21167"
       x2="6481"
       y2="737.34943"
       gradientUnits="userSpaceOnUse" />
    <linearGradient
       inkscape:collect="always"
       xlink:href="#linearGradient7225"
       id="linearGradient7303"
       x1="6481"
       y1="658.21167"
       x2="6481"
       y2="677.34943"
       gradientUnits="userSpaceOnUse" />
    <linearGradient
       inkscape:collect="always"
       xlink:href="#linearGradient7225"
       id="linearGradient7305"
       x1="6481"
       y1="598.21167"
       x2="6481"
       y2="617.34943"
       gradientUnits="userSpaceOnUse" />
    <linearGradient
       inkscape:collect="always"
       xlink:href="#linearGradient7225"
       id="linearGradient7307"
       x1="6481"
       y1="538.21167"
       x2="6481"
       y2="557.34943"
       gradientUnits="userSpaceOnUse" />
    <linearGradient
       inkscape:collect="always"
       xlink:href="#linearGradient7225"
       id="linearGradient7309"
       x1="6481"
       y1="477.85452"
       x2="6481"
       y2="497.375"
       gradientUnits="userSpaceOnUse" />
    <linearGradient
       inkscape:collect="always"
       xlink:href="#linearGradient7225"
       id="linearGradient7311"
       x1="6481"
       y1="418.23727"
       x2="6481"
       y2="437.375"
       gradientUnits="userSpaceOnUse" />
    <linearGradient
       inkscape:collect="always"
       xlink:href="#linearGradient7225"
       id="linearGradient7313"
       x1="6481"
       y1="357.47177"
       x2="6481"
       y2="377.375"
       gradientUnits="userSpaceOnUse" />
    <linearGradient
       inkscape:collect="always"
       xlink:href="#linearGradient7323"
       id="linearGradient7329"
       x1="7039.5"
       y1="317.375"
       x2="7039.5"
       y2="297.73767"
       gradientUnits="userSpaceOnUse" />
    <linearGradient
       inkscape:collect="always"
       xlink:href="#linearGradient7323"
       id="linearGradient7359"
       x1="7039"
       y1="557.34943"
       x2="7039"
       y2="537.8045"
       gradientUnits="userSpaceOnUse" />
    <linearGradient
       inkscape:collect="always"
       xlink:href="#linearGradient7323"
       id="linearGradient7361"
       x1="7039"
       y1="617.34943"
       x2="7039"
       y2="597.2616"
       gradientUnits="userSpaceOnUse" />
    <linearGradient
       inkscape:collect="always"
       xlink:href="#linearGradient7323"
       id="linearGradient7363"
       x1="7039"
       y1="677.34943"
       x2="7039"
       y2="658.34741"
       gradientUnits="userSpaceOnUse" />
    <linearGradient
       inkscape:collect="always"
       xlink:href="#linearGradient7323"
       id="linearGradient7365"
       x1="7039"
       y1="737.34943"
       x2="7039"
       y2="717.8045"
       gradientUnits="userSpaceOnUse" />
    <linearGradient
       inkscape:collect="always"
       xlink:href="#linearGradient7323"
       id="linearGradient7367"
       x1="7039"
       y1="497.375"
       x2="7039"
       y2="477.83008"
       gradientUnits="userSpaceOnUse" />
    <linearGradient
       inkscape:collect="always"
       xlink:href="#linearGradient7323"
       id="linearGradient7369"
       x1="7039"
       y1="437.375"
       x2="7039"
       y2="418.37299"
       gradientUnits="userSpaceOnUse" />
    <linearGradient
       inkscape:collect="always"
       xlink:href="#linearGradient7323"
       id="linearGradient7371"
       x1="7039"
       y1="377.375"
       x2="7039"
       y2="358.64444"
       gradientUnits="userSpaceOnUse" />
    <filter
       inkscape:collect="always"
       style="color-interpolation-filters:sRGB"
       id="filter7454"
       x="-0.012433567"
       width="1.0248671"
       y="-0.011595652"
       height="1.0231913">
      <feGaussianBlur
         inkscape:collect="always"
         stdDeviation="0.17643542"
         id="feGaussianBlur7456" />
    </filter>
    <filter
       inkscape:collect="always"
       style="color-interpolation-filters:sRGB"
       id="filter7467"
       x="-0.024000553"
       width="1.0480011"
       y="-0.023999447"
       height="1.0479989">
      <feGaussianBlur
         inkscape:collect="always"
         stdDeviation="0.40571335"
         id="feGaussianBlur7469" />
    </filter>
    <clipPath
       clipPathUnits="userSpaceOnUse"
       id="clipPath7473">
      <circle
         r="20.285686"
         cy="527.36224"
         cx="6760"
         id="circle7475"
         style="fill:#43425c;fill-opacity:1;stroke:none;stroke-width:1;stroke-linecap:butt;stroke-linejoin:miter;stroke-miterlimit:4;stroke-dasharray:none;stroke-dashoffset:0;stroke-opacity:1" />
    </clipPath>
    <linearGradient
       inkscape:collect="always"
       xlink:href="#linearGradient7548"
       id="linearGradient7554"
       x1="7060"
       y1="1408.355"
       x2="7060"
       y2="-165.8902"
       gradientUnits="userSpaceOnUse" />
    <linearGradient
       inkscape:collect="always"
       xlink:href="#linearGradient7558"
       id="linearGradient7564"
       x1="7102.502"
       y1="1158.0684"
       x2="7102.502"
       y2="489.62311"
       gradientUnits="userSpaceOnUse" />
    <filter
       inkscape:collect="always"
       style="color-interpolation-filters:sRGB"
       id="filter7585"
       x="-0.011616774"
       width="1.0232335"
       y="-0.012409373"
       height="1.0248187">
      <feGaussianBlur
         inkscape:collect="always"
         stdDeviation="3.3156383"
         id="feGaussianBlur7587" />
    </filter>
    <linearGradient
       inkscape:collect="always"
       xlink:href="#linearGradient7591"
       id="linearGradient7597"
       x1="6710"
       y1="1442.3622"
       x2="6810"
       y2="1442.3622"
       gradientUnits="userSpaceOnUse" />
    <linearGradient
       inkscape:collect="always"
       xlink:href="#linearGradient7591"
       id="linearGradient7619"
       x1="6445.6567"
       y1="1907.375"
       x2="7210.5"
       y2="1907.375"
       gradientUnits="userSpaceOnUse" />
    <linearGradient
       inkscape:collect="always"
       xlink:href="#linearGradient7591"
       id="linearGradient7627"
       x1="6698.4004"
       y1="1787.8781"
       x2="6830.5596"
       y2="1794.8622"
       gradientUnits="userSpaceOnUse" />
  </defs>
  <sodipodi:namedview
     id="base"
     pagecolor="#ffffff"
     bordercolor="#666666"
     borderopacity="1.0"
     inkscape:pageopacity="0.0"
     inkscape:pageshadow="2"
     inkscape:zoom="0.43594041"
     inkscape:cx="450"
     inkscape:cy="959.99358"
     inkscape:document-units="px"
     inkscape:current-layer="layer2"
     showgrid="false"
     inkscape:window-width="1680"
     inkscape:window-height="999"
     inkscape:window-x="0"
     inkscape:window-y="-3"
     inkscape:window-maximized="1"
     showguides="true"
     inkscape:guide-bbox="true"
     inkscape:snap-bbox="true"
     inkscape:snap-global="true"
     inkscape:snap-nodes="true"
     inkscape:object-paths="true"
     inkscape:snap-bbox-midpoints="true"
     fit-margin-top="0"
     fit-margin-left="0"
     fit-margin-right="0"
     fit-margin-bottom="0">
    <inkscape:grid
       type="xygrid"
       id="grid6110"
       originx="-6310"
       originy="910.00002" />
  </sodipodi:namedview>
  <metadata
     id="metadata7">
    <rdf:RDF>
      <cc:Work
         rdf:about="">
        <dc:format>image/svg+xml</dc:format>
        <dc:type
           rdf:resource="http://purl.org/dc/dcmitype/StillImage" />
        <dc:title></dc:title>
      </cc:Work>
    </rdf:RDF>
  </metadata>
  <g
     inkscape:groupmode="layer"
     id="layer2"
     inkscape:label="mic1"
     style="display:inline"
     transform="translate(-6310,-42.375)">
    <rect
       style="fill:#000000;fill-rule:evenodd;stroke:none;stroke-width:1px;stroke-linecap:butt;stroke-linejoin:miter;stroke-opacity:1"
       id="rect7589"
       width="615"
       height="38.642406"
       x="6452.5"
       y="532.63025" />
    <path
       style="fill:#43425c;fill-opacity:1;stroke:none;stroke-width:1;stroke-linecap:butt;stroke-linejoin:miter;stroke-miterlimit:4;stroke-dasharray:none;stroke-dashoffset:0;stroke-opacity:1"
       d="m 6670,42.375 c -116.34,0 -210,93.66 -210,210 l 0,550 c 0,116.34 93.66,210 210,210 l 180,0 c 116.34,0 210,-93.66 210,-210 l 0,-550 c 0,-116.34 -93.66,-210 -210,-210 l -180,0 z"
       id="path6133"
       inkscape:connector-curvature="0" />
    <path
       style="fill:url(#linearGradient7231);fill-opacity:1;stroke:none;stroke-width:1;stroke-linecap:butt;stroke-linejoin:miter;stroke-miterlimit:4;stroke-dasharray:none;stroke-dashoffset:0;stroke-opacity:1"
       d="m 6740,42.375 0,20.5 40,0 0,-20.5 -40,0 z"
       id="path6049"
       inkscape:connector-curvature="0" />
    <path
       style="fill:url(#linearGradient7245);fill-opacity:1;stroke:none;stroke-width:1;stroke-linecap:butt;stroke-linejoin:miter;stroke-miterlimit:4;stroke-dasharray:none;stroke-dashoffset:0;stroke-opacity:1"
       d="m 6800,42.375 0,20.5 38.375,0 c 0.5421,0 1.0839,0.02701 1.625,0.03125 l 0,-20.53125 -40,0 z"
       id="path6054"
       inkscape:connector-curvature="0" />
    <path
       style="fill:url(#linearGradient7253);fill-opacity:1;stroke:none;stroke-width:1;stroke-linecap:butt;stroke-linejoin:miter;stroke-miterlimit:4;stroke-dasharray:none;stroke-dashoffset:0;stroke-opacity:1"
       d="m 6860,42.625 0,21.40625 c 13.8109,1.463545 27.1819,4.310246 40,8.40625 l 0,-24.09375 c 0,-5.88e-4 0,-0.03066 0,-0.03125 -0.3202,-0.07767 -0.648,-0.142534 -0.9688,-0.21875 -0.9941,-0.236197 -2.0005,-0.465349 -3,-0.6875 -0.3042,-0.06755 -0.6014,-0.152513 -0.9062,-0.21875 -0.8978,-0.195406 -1.7854,-0.378516 -2.6875,-0.5625 -0.218,-0.04438 -0.438,-0.08129 -0.6563,-0.125 -1.4956,-0.299547 -2.9928,-0.575964 -4.5,-0.84375 -1.447,-0.257106 -2.9177,-0.491247 -4.375,-0.71875 -0.2834,-0.04437 -0.5599,-0.113011 -0.8437,-0.15625 -0.581,-0.08829 -1.1674,-0.166452 -1.75,-0.25 -1.1596,-0.166672 -2.3342,-0.321001 -3.5,-0.46875 -3.5113,-0.443786 -7.0294,-0.792979 -10.5937,-1.0625 -1.7822,-0.13476 -3.5805,-0.253368 -5.375,-0.34375 -0.2801,-0.0141 -0.5635,-0.01823 -0.8438,-0.03125 z"
       id="path6059"
       inkscape:connector-curvature="0" />
    <path
       style="fill:url(#linearGradient7261);fill-opacity:1;stroke:none;stroke-width:1;stroke-linecap:butt;stroke-linejoin:miter;stroke-miterlimit:4;stroke-dasharray:none;stroke-dashoffset:0;stroke-opacity:1"
       d="m 6920,54.25 0,25.78125 c 14.2958,6.323185 27.7039,14.239315 40,23.5625 l 0,-30.3125 c -1.5646,-0.960141 -3.1583,-1.892711 -4.75,-2.8125 -1.1887,-0.686938 -2.3903,-1.367143 -3.5938,-2.03125 -0.4081,-0.22523 -0.8089,-0.464913 -1.2187,-0.6875 -0.062,-0.03344 -0.1259,-0.06037 -0.1875,-0.09375 -0.744,-0.403171 -1.5005,-0.793089 -2.25,-1.1875 -0.7534,-0.396355 -1.4912,-0.800073 -2.25,-1.1875 -0.062,-0.03178 -0.1253,-0.06203 -0.1875,-0.09375 -1.4486,-0.737728 -2.907,-1.451382 -4.375,-2.15625 -0.1971,-0.09469 -0.3963,-0.18716 -0.5937,-0.28125 -1.3366,-0.636605 -2.6792,-1.265951 -4.0313,-1.875 -0.8651,-0.389895 -1.7224,-0.77776 -2.5937,-1.15625 -1.1193,-0.485971 -2.2457,-0.970499 -3.375,-1.4375 -0.052,-0.02144 -0.1044,-0.0411 -0.1563,-0.0625 -0.1466,-0.06047 -0.2908,-0.127356 -0.4375,-0.1875 -1.5715,-0.644147 -3.1595,-1.236719 -4.75,-1.84375 -1.739,-0.66371 -3.4889,-1.318797 -5.25,-1.9375 z"
       id="path6066"
       inkscape:connector-curvature="0" />
    <path
       style="fill:#6a6e79;fill-opacity:1;stroke:none;stroke-width:1;stroke-linecap:butt;stroke-linejoin:miter;stroke-miterlimit:4;stroke-dasharray:none;stroke-dashoffset:0;stroke-opacity:1"
       d="m 6740,991.875 0,5.5 c 0,8.31 6.69,15 15,15 l 10,0 c 8.31,0 15,-6.69 15,-15 l 0,-5.5 -40,0 z"
       id="path6075"
       inkscape:connector-curvature="0" />
    <path
       style="fill:#6a6e79;fill-opacity:1;stroke:none;stroke-width:1;stroke-linecap:butt;stroke-linejoin:miter;stroke-miterlimit:4;stroke-dasharray:none;stroke-dashoffset:0;stroke-opacity:1"
       d="m 6840,991.84375 c -0.5411,0.004 -1.0829,0.0313 -1.625,0.0313 l -38.375,0 0,5.5 c 0,8.30995 6.69,14.99995 15,14.99995 l 10,0 c 8.31,0 15,-6.69 15,-14.99995 l 0,-5.53125 z"
       id="path6084"
       inkscape:connector-curvature="0" />
    <path
       style="fill:#6a6e79;fill-opacity:1;stroke:none;stroke-width:1;stroke-linecap:butt;stroke-linejoin:miter;stroke-miterlimit:4;stroke-dasharray:none;stroke-dashoffset:0;stroke-opacity:1"
       d="m 6900,982.3125 c -12.8181,4.096 -26.1891,6.9427 -40,8.40625 l 0,3.65625 c 0,8.31 6.69,15 15,15 l 10,0 c 0.3181,0 0.6244,-0.043 0.9375,-0.063 1.1734,-0.2012 2.3646,-0.4045 3.5313,-0.625 0.022,0 0.041,-0.027 0.062,-0.031 6.0788,-1.9141 10.4688,-7.554 10.4688,-14.2812 l 0,-12.0625 z"
       id="path6089"
       inkscape:connector-curvature="0" />
    <path
       style="fill:#6a6e79;fill-opacity:1;stroke:none;stroke-width:1;stroke-linecap:butt;stroke-linejoin:miter;stroke-miterlimit:4;stroke-dasharray:none;stroke-dashoffset:0;stroke-opacity:1"
       d="m 6960,951.15625 c -12.241,9.28142 -25.5887,17.15968 -39.8125,23.46875 1.0836,7.23018 7.271,12.75 14.8125,12.75 l 10,0 c 8.31,0 15,-6.69 15,-15 l 0,-21.21875 z"
       id="rect6094"
       inkscape:connector-curvature="0" />
    <path
       style="fill:url(#linearGradient7329);fill-opacity:1;stroke:none;stroke-width:1;stroke-linecap:butt;stroke-linejoin:miter;stroke-miterlimit:4;stroke-dasharray:none;stroke-dashoffset:0;stroke-opacity:1"
       d="m 7039.5,297.375 0,40 0.5,0 c 11.08,0 20,-8.92001 20,-20 0,-11.07999 -8.92,-20 -20,-20 l -0.5,0 z"
       id="path6099"
       inkscape:connector-curvature="0" />
    <path
       style="fill:url(#linearGradient7371);fill-opacity:1;stroke:none;stroke-width:1;stroke-linecap:butt;stroke-linejoin:miter;stroke-miterlimit:4;stroke-dasharray:none;stroke-dashoffset:0;stroke-opacity:1"
       d="m 7039.5,357.375 0,40 0.5,0 c 11.08,0 20,-8.92001 20,-20 0,-11.07999 -8.92,-20 -20,-20 l -0.5,0 z"
       id="path6104"
       inkscape:connector-curvature="0" />
    <path
       style="fill:url(#linearGradient7369);fill-opacity:1;stroke:none;stroke-width:1;stroke-linecap:butt;stroke-linejoin:miter;stroke-miterlimit:4;stroke-dasharray:none;stroke-dashoffset:0;stroke-opacity:1"
       d="m 7039.5,417.375 0,40 0.5,0 c 11.08,0 20,-8.92001 20,-20 0,-11.07999 -8.92,-20 -20,-20 l -0.5,0 z"
       id="path6109"
       inkscape:connector-curvature="0" />
    <path
       style="fill:url(#linearGradient7367);fill-opacity:1;stroke:none;stroke-width:1;stroke-linecap:butt;stroke-linejoin:miter;stroke-miterlimit:4;stroke-dasharray:none;stroke-dashoffset:0;stroke-opacity:1"
       d="m 7039.5,477.375 0,40 0.5,0 c 11.08,0 20,-8.92001 20,-20 0,-11.07999 -8.92,-20 -20,-20 l -0.5,0 z"
       id="path6114"
       inkscape:connector-curvature="0" />
    <path
       inkscape:connector-curvature="0"
       id="path6158"
       d="m 6480.5,297.375 0,40 -0.5,0 c -11.08,0 -20,-8.92001 -20,-20 0,-11.07999 8.92,-20 20,-20 l 0.5,0 z"
       style="fill:url(#linearGradient7293);fill-opacity:1;stroke:none;stroke-width:1;stroke-linecap:butt;stroke-linejoin:miter;stroke-miterlimit:4;stroke-dasharray:none;stroke-dashoffset:0;stroke-opacity:1" />
    <path
       inkscape:connector-curvature="0"
       id="path6160"
       d="m 6480.5,357.375 0,40 -0.5,0 c -11.08,0 -20,-8.92001 -20,-20 0,-11.07999 8.92,-20 20,-20 l 0.5,0 z"
       style="fill:url(#linearGradient7313);fill-opacity:1;stroke:none;stroke-width:1;stroke-linecap:butt;stroke-linejoin:miter;stroke-miterlimit:4;stroke-dasharray:none;stroke-dashoffset:0;stroke-opacity:1" />
    <path
       inkscape:connector-curvature="0"
       id="path6162"
       d="m 6480.5,417.375 0,40 -0.5,0 c -11.08,0 -20,-8.92001 -20,-20 0,-11.07999 8.92,-20 20,-20 l 0.5,0 z"
       style="fill:url(#linearGradient7311);fill-opacity:1;stroke:none;stroke-width:1;stroke-linecap:butt;stroke-linejoin:miter;stroke-miterlimit:4;stroke-dasharray:none;stroke-dashoffset:0;stroke-opacity:1" />
    <path
       inkscape:connector-curvature="0"
       id="path6164"
       d="m 6480.5,477.375 0,40 -0.5,0 c -11.08,0 -20,-8.92001 -20,-20 0,-11.07999 8.92,-20 20,-20 l 0.5,0 z"
       style="fill:url(#linearGradient7309);fill-opacity:1;stroke:none;stroke-width:1;stroke-linecap:butt;stroke-linejoin:miter;stroke-miterlimit:4;stroke-dasharray:none;stroke-dashoffset:0;stroke-opacity:1" />
    <path
       inkscape:connector-curvature="0"
       id="path6178"
       d="m 7039.5,757.3494 0,-40 0.5,0 c 11.08,0 20,8.92001 20,20 0,11.07999 -8.92,20 -20,20 l -0.5,0 z"
       style="fill:url(#linearGradient7365);fill-opacity:1;stroke:none;stroke-width:1;stroke-linecap:butt;stroke-linejoin:miter;stroke-miterlimit:4;stroke-dasharray:none;stroke-dashoffset:0;stroke-opacity:1" />
    <path
       inkscape:connector-curvature="0"
       id="path6180"
       d="m 7039.5,697.3494 0,-40 0.5,0 c 11.08,0 20,8.92001 20,20 0,11.07999 -8.92,20 -20,20 l -0.5,0 z"
       style="fill:url(#linearGradient7363);fill-opacity:1;stroke:none;stroke-width:1;stroke-linecap:butt;stroke-linejoin:miter;stroke-miterlimit:4;stroke-dasharray:none;stroke-dashoffset:0;stroke-opacity:1" />
    <path
       inkscape:connector-curvature="0"
       id="path6182"
       d="m 7039.5,637.3494 0,-40 0.5,0 c 11.08,0 20,8.92001 20,20 0,11.07999 -8.92,20 -20,20 l -0.5,0 z"
       style="fill:url(#linearGradient7361);fill-opacity:1;stroke:none;stroke-width:1;stroke-linecap:butt;stroke-linejoin:miter;stroke-miterlimit:4;stroke-dasharray:none;stroke-dashoffset:0;stroke-opacity:1" />
    <path
       inkscape:connector-curvature="0"
       id="path6184"
       d="m 7039.5,577.3494 0,-40 0.5,0 c 11.08,0 20,8.92001 20,20 0,11.07999 -8.92,20 -20,20 l -0.5,0 z"
       style="fill:url(#linearGradient7359);fill-opacity:1;stroke:none;stroke-width:1;stroke-linecap:butt;stroke-linejoin:miter;stroke-miterlimit:4;stroke-dasharray:none;stroke-dashoffset:0;stroke-opacity:1" />
    <path
       style="fill:url(#linearGradient7301);fill-opacity:1;stroke:none;stroke-width:1;stroke-linecap:butt;stroke-linejoin:miter;stroke-miterlimit:4;stroke-dasharray:none;stroke-dashoffset:0;stroke-opacity:1"
       d="m 6480.5,757.3494 0,-40 -0.5,0 c -11.08,0 -20,8.92001 -20,20 0,11.07999 8.92,20 20,20 l 0.5,0 z"
       id="path6198"
       inkscape:connector-curvature="0" />
    <path
       style="fill:url(#linearGradient7303);fill-opacity:1;stroke:none;stroke-width:1;stroke-linecap:butt;stroke-linejoin:miter;stroke-miterlimit:4;stroke-dasharray:none;stroke-dashoffset:0;stroke-opacity:1"
       d="m 6480.5,697.3494 0,-40 -0.5,0 c -11.08,0 -20,8.92001 -20,20 0,11.07999 8.92,20 20,20 l 0.5,0 z"
       id="path6200"
       inkscape:connector-curvature="0" />
    <path
       style="fill:url(#linearGradient7305);fill-opacity:1;stroke:none;stroke-width:1;stroke-linecap:butt;stroke-linejoin:miter;stroke-miterlimit:4;stroke-dasharray:none;stroke-dashoffset:0;stroke-opacity:1"
       d="m 6480.5,637.3494 0,-40 -0.5,0 c -11.08,0 -20,8.92001 -20,20 0,11.07999 8.92,20 20,20 l 0.5,0 z"
       id="path6202"
       inkscape:connector-curvature="0" />
    <path
       style="fill:url(#linearGradient7307);fill-opacity:1;stroke:none;stroke-width:1;stroke-linecap:butt;stroke-linejoin:miter;stroke-miterlimit:4;stroke-dasharray:none;stroke-dashoffset:0;stroke-opacity:1"
       d="m 6480.5,577.3494 0,-40 -0.5,0 c -11.08,0 -20,8.92001 -20,20 0,11.07999 8.92,20 20,20 l 0.5,0 z"
       id="path6204"
       inkscape:connector-curvature="0" />
    <path
       inkscape:connector-curvature="0"
       id="path6264"
       d="m 6719.5,42.375 0,20.5 -38.375,0 c -0.5421,0 -1.0839,0.02701 -1.625,0.03125 l 0,-20.53125 40,0 z"
       style="fill:url(#linearGradient7269);fill-opacity:1;stroke:none;stroke-width:1;stroke-linecap:butt;stroke-linejoin:miter;stroke-miterlimit:4;stroke-dasharray:none;stroke-dashoffset:0;stroke-opacity:1" />
    <path
       inkscape:connector-curvature="0"
       id="path6266"
       d="m 6659.5,42.625 0,21.40625 c -13.8109,1.463545 -27.1819,4.310246 -40,8.40625 l 0,-24.09375 c 0,-5.88e-4 0,-0.03066 0,-0.03125 0.3202,-0.07767 0.648,-0.142534 0.9688,-0.21875 0.9941,-0.236197 2.0005,-0.465349 3,-0.6875 0.3042,-0.06755 0.6014,-0.152513 0.9062,-0.21875 0.8978,-0.195406 1.7854,-0.378516 2.6875,-0.5625 0.218,-0.04438 0.438,-0.08129 0.6563,-0.125 1.4956,-0.299547 2.9928,-0.575964 4.5,-0.84375 1.447,-0.257106 2.9177,-0.491247 4.375,-0.71875 0.2834,-0.04437 0.5599,-0.113011 0.8437,-0.15625 0.581,-0.08829 1.1674,-0.166452 1.75,-0.25 1.1596,-0.166672 2.3342,-0.321001 3.5,-0.46875 3.5113,-0.443786 7.0294,-0.792979 10.5937,-1.0625 1.7822,-0.13476 3.5805,-0.253368 5.375,-0.34375 0.2801,-0.0141 0.5635,-0.01823 0.8438,-0.03125 z"
       style="fill:url(#linearGradient7277);fill-opacity:1;stroke:none;stroke-width:1;stroke-linecap:butt;stroke-linejoin:miter;stroke-miterlimit:4;stroke-dasharray:none;stroke-dashoffset:0;stroke-opacity:1" />
    <path
       inkscape:connector-curvature="0"
       id="path6268"
       d="m 6599.5,54.25 0,25.78125 c -14.2958,6.323185 -27.7039,14.239315 -40,23.5625 l 0,-30.3125 c 1.5646,-0.960141 3.1583,-1.892711 4.75,-2.8125 1.1887,-0.686938 2.3903,-1.367143 3.5938,-2.03125 0.4081,-0.22523 0.8089,-0.464913 1.2187,-0.6875 0.062,-0.03344 0.1259,-0.06037 0.1875,-0.09375 0.744,-0.403171 1.5005,-0.793089 2.25,-1.1875 0.7534,-0.396355 1.4912,-0.800073 2.25,-1.1875 0.062,-0.03178 0.1253,-0.06203 0.1875,-0.09375 1.4486,-0.737728 2.907,-1.451382 4.375,-2.15625 0.1971,-0.09469 0.3963,-0.18716 0.5937,-0.28125 1.3366,-0.636605 2.6792,-1.265951 4.0313,-1.875 0.8651,-0.389895 1.7224,-0.77776 2.5937,-1.15625 1.1193,-0.485971 2.2457,-0.970499 3.375,-1.4375 0.052,-0.02144 0.1044,-0.0411 0.1563,-0.0625 0.1466,-0.06047 0.2908,-0.127356 0.4375,-0.1875 1.5715,-0.644147 3.1595,-1.236719 4.75,-1.84375 1.739,-0.66371 3.4889,-1.318797 5.25,-1.9375 z"
       style="fill:url(#linearGradient7285);fill-opacity:1;stroke:none;stroke-width:1;stroke-linecap:butt;stroke-linejoin:miter;stroke-miterlimit:4;stroke-dasharray:none;stroke-dashoffset:0;stroke-opacity:1" />
    <path
       inkscape:connector-curvature="0"
       id="path6308"
       d="m 6680,991.84375 c 0.5411,0.004 1.0829,0.0313 1.625,0.0313 l 38.375,0 0,5.5 c 0,8.30995 -6.69,14.99995 -15,14.99995 l -10,0 c -8.31,0 -15,-6.69 -15,-14.99995 l 0,-5.53125 z"
       style="fill:#6a6e79;fill-opacity:1;stroke:none;stroke-width:1;stroke-linecap:butt;stroke-linejoin:miter;stroke-miterlimit:4;stroke-dasharray:none;stroke-dashoffset:0;stroke-opacity:1" />
    <path
       inkscape:connector-curvature="0"
       id="path6310"
       d="m 6620,982.3125 c 12.8181,4.096 26.1891,6.9427 40,8.40625 l 0,3.65625 c 0,8.31 -6.69,15 -15,15 l -10,0 c -0.3181,0 -0.6244,-0.043 -0.9375,-0.063 -1.1734,-0.2012 -2.3646,-0.4045 -3.5313,-0.625 -0.022,0 -0.041,-0.027 -0.062,-0.031 -6.0788,-1.9141 -10.4688,-7.554 -10.4688,-14.2812 l 0,-12.0625 z"
       style="fill:#6a6e79;fill-opacity:1;stroke:none;stroke-width:1;stroke-linecap:butt;stroke-linejoin:miter;stroke-miterlimit:4;stroke-dasharray:none;stroke-dashoffset:0;stroke-opacity:1" />
    <path
       inkscape:connector-curvature="0"
       id="path6312"
       d="m 6560,951.15625 c 12.241,9.28142 25.5887,17.15968 39.8125,23.46875 -1.0836,7.23018 -7.271,12.75 -14.8125,12.75 l -10,0 c -8.31,0 -15,-6.69 -15,-15 l 0,-21.21875 z"
       style="fill:#6a6e79;fill-opacity:1;stroke:none;stroke-width:1;stroke-linecap:butt;stroke-linejoin:miter;stroke-miterlimit:4;stroke-dasharray:none;stroke-dashoffset:0;stroke-opacity:1" />
    <path
       style="fill:url(#linearGradient7215);fill-opacity:1;stroke:none;stroke-width:1;stroke-linecap:butt;stroke-linejoin:miter;stroke-miterlimit:4;stroke-dasharray:none;stroke-dashoffset:0;stroke-opacity:1"
       d="m 6670,42.375 c -3.5202,0 -7.0233,0.111715 -10.5,0.28125 l 0,174.71875 c 0,8.31 -6.69,15 -15,15 l -10,0 c -8.31,0 -15,-6.69 -15,-15 l 0,-168.9375 c -6.8023,1.667522 -13.48,3.659675 -20,5.96875 l 0,162.96875 c 0,8.31 -6.69,15 -15,15 l -10,0 c -8.31,0 -15,-6.69 -15,-15 l 0,-143.78125 C 6499.697,110.52458 6460,176.63798 6460,252.375 l 0,65 c 0,-11.07999 8.92,-20 20,-20 l 260,0 0,40 -260,0 c -11.08,0 -20,-8.92001 -20,-20 l 0,60 c 0,-11.07999 8.92,-20 20,-20 l 260,0 0,40 -260,0 c -11.08,0 -20,-8.92001 -20,-20 l 0,60 c 0,-11.07999 8.92,-20 20,-20 l 260,0 0,40 -260,0 c -11.08,0 -20,-8.92001 -20,-20 l 0,60 c 0,-11.07999 8.92,-20 20,-20 l 260,0 c 0,9.98718 -25,40.00087 -40,40 l -220,0 c -11.08,0 -20,-8.92001 -20,-20 l 0,60 c 0,-11.07999 8.92,-20 20,-20 l 220,-0.0313 c 15,-8.7e-4 40,30.01282 40,40 l -260,0.0313 c -11.08,0 -20,-8.92001 -20,-20 l 0,60 c 0,-11.07999 8.92,-20 20,-20 l 260,0 0,40 -260,0 c -11.08,0 -20,-8.92001 -20,-20 l 0,60 c 0,-11.07999 8.92,-20 20,-20 l 260,0 0,40 -260,0 c -11.08,0 -20,-8.92001 -20,-20 l 0,60 c 0,-11.07999 8.92,-20 20,-20 l 260,-0.0313 0,40 -260,0.0313 c -11.08,0 -20,-8.92001 -20,-20 l 0,65 c 0,102.83378 73.1664,187.93621 170.5,206.3125 -6.0988,-1.9023 -10.5,-7.571 -10.5,-14.3125 l 0,-92 c 0,-8.31 6.69,-15 15,-15 l 10,0 c 8.31,0 15,6.69 15,15 l 0,92 c 0,8.31 -6.69,15 -15,15 l -10,0 c -0.3181,0 -0.6244,-0.043 -0.9375,-0.063 11.6705,1.9962 23.6805,3.0625 35.9375,3.0625 l 25,0 c -8.31,0 -15,-6.69 -15,-15 l 0,-95 c 0,-8.31 6.69,-15 15,-15 l 10,0 c 8.31,0 15,6.69 15,15 l 0,95 c 0,8.31 -6.69,15 -15,15 l 50,0 c -8.31,0 -15,-6.69 -15,-15 l 0,-95 c 0,-8.31 6.69,-15 15,-15 l 10,0 c 8.31,0 15,6.69 15,15 l 0,95 c 0,8.31 -6.69,15 -15,15 l 50,0 c -8.31,0 -15,-6.69 -15,-15 l 0,-95 c 0,-8.31 6.69,-15 15,-15 l 10,0 c 8.31,0 15,6.69 15,15 l 0,95 c 0,8.31 -6.69,15 -15,15 l 25,0 c 12.257,0 24.267,-1.0663 35.9375,-3.0625 -0.3131,0.019 -0.6194,0.063 -0.9375,0.063 l -10,0 c -8.31,0 -15,-6.69 -15,-15 l 0,-92 c 0,-8.31 6.69,-15 15,-15 l 10,0 c 8.31,0 15,6.69 15,15 l 0,92 c 0,6.7415 -4.4012,12.4102 -10.5,14.3125 C 6986.8336,990.31121 7060,905.20878 7060,802.375 l 0,-65 c 0,11.07999 -8.92,20 -20,20 l -260,-0.0313 0,-40 260,0.0313 c 11.08,0 20,8.92001 20,20 l 0,-60 c 0,11.07999 -8.92,20 -20,20 l -260,0 0,-40 260,0 c 11.08,0 20,8.92001 20,20 l 0,-60 c 0,11.07999 -8.92,20 -20,20 l -260,0 0,-40 260,0 c 11.08,0 20,8.92001 20,20 l 0,-60 c 0,11.07999 -8.92,20 -20,20 l -260,-0.0313 c 0,-9.98718 25,-40.00087 40,-40 l 220,0.0313 c 11.08,0 20,8.92001 20,20 l 0,-60 c 0,11.07999 -8.92,20 -20,20 l -220,0 c -15,8.7e-4 -40,-30.01282 -40,-40 l 260,0 c 11.08,0 20,8.92001 20,20 l 0,-60 c 0,11.07999 -8.92,20 -20,20 l -260,0 0,-40 260,0 c 11.08,0 20,8.92001 20,20 l 0,-60 c 0,11.07999 -8.92,20 -20,20 l -260,0 0,-40 260,0 c 11.08,0 20,8.92001 20,20 l 0,-60 c 0,11.07999 -8.92,20 -20,20 l -260,0 0,-40 260,0 c 11.08,0 20,8.92001 20,20 l 0,-65 c 0,-75.94906 -39.9168,-142.22361 -100,-179.09375 l 0,144.09375 c 0,8.31 -6.69,15 -15,15 l -10,0 c -8.31,0 -15,-6.69 -15,-15 l 0,-163.125 c -6.52,-2.290616 -13.1992,-4.256577 -20,-5.90625 l 0,169.03125 c 0,8.31 -6.69,15 -15,15 l -10,0 c -8.31,0 -15,-6.69 -15,-15 l 0,-174.75 c -3.3126,-0.1538 -6.648,-0.25 -10,-0.25 l -10,0 0,175 c 0,8.31 -6.69,15 -15,15 l -10,0 c -8.31,0 -15,-6.69 -15,-15 l 0,-175 -20,0 0,175 c 0,8.31 -6.69,15 -15,15 l -10,0 c -8.31,0 -15,-6.69 -15,-15 l 0,-175 -20.5,0 0,175 c 0,8.31 -6.69,15 -15,15 l -10,0 c -8.31,0 -15,-6.69 -15,-15 l 0,-175 -9.5,0 z m 226.0312,5.03125 c 0.9995,0.222151 2.0059,0.451303 3,0.6875 -0.9989,-0.237275 -1.9954,-0.464477 -3,-0.6875 z m 34.5626,10.875 c 1.1293,0.467001 2.2557,0.951529 3.375,1.4375 -1.1235,-0.488029 -2.2413,-0.968611 -3.375,-1.4375 z M 6575,887.375 l 10,0 c 8.31,0 15,6.69 15,15 l 0,70 c 0,8.31 -6.69,15 -15,15 l -10,0 c -8.31,0 -15,-6.69 -15,-15 l 0,-70 c 0,-8.31 6.69,-15 15,-15 z m 360,0 10,0 c 8.31,0 15,6.69 15,15 l 0,70 c 0,8.31 -6.69,15 -15,15 l -10,0 c -8.31,0 -15,-6.69 -15,-15 l 0,-70 c 0,-8.31 6.69,-15 15,-15 z"
       id="path6337"
       inkscape:connector-curvature="0" />
    <path
       style="color:#000000;font-style:normal;font-variant:normal;font-weight:normal;font-stretch:normal;font-size:medium;line-height:normal;font-family:Sans;-inkscape-font-specification:Sans;text-indent:0;text-align:start;text-decoration:none;text-decoration-line:none;letter-spacing:normal;word-spacing:normal;text-transform:none;direction:ltr;block-progression:tb;writing-mode:lr-tb;baseline-shift:baseline;text-anchor:start;display:inline;overflow:visible;visibility:visible;fill:url(#linearGradient7564);fill-opacity:1;stroke:none;stroke-width:1;stroke-miterlimit:4;stroke-dasharray:none;marker:none;enable-background:accumulate"
       d="m 6434.75,487.11218 a 17.50175,17.50175 0 0 0 -17.25,17.75 l 0,460 c 0,36.41772 15.0956,82.63452 46.5312,121.84382 31.4357,39.2092 80.7385,70.6562 145.9688,70.6562 l 150,0 150,0 c 65.2303,0 114.5331,-31.447 145.9688,-70.6562 31.4355,-39.2093 46.5312,-85.4261 46.5312,-121.84382 l 0,-460 a 17.50175,17.50175 0 0 0 -17.75,-17.75 17.50175,17.50175 0 0 0 -17.25,17.75 l 0,460 c 0,26.04633 -12.6471,67.29392 -38.8438,99.96882 -26.1966,32.6747 -64.4154,57.5312 -118.6562,57.5312 l -150,0 -150,0 c -54.2408,0 -92.4596,-24.8566 -118.6562,-57.5312 -26.1967,-32.6749 -38.8438,-73.92249 -38.8438,-99.96882 l 0,-460 a 17.50175,17.50175 0 0 0 -17.75,-17.75 z"
       id="path6060"
       inkscape:connector-curvature="0" />
    <rect
       style="fill:url(#linearGradient7597);fill-opacity:1;stroke:none;stroke-width:1;stroke-linecap:round;stroke-linejoin:miter;stroke-miterlimit:4;stroke-dasharray:none;stroke-dashoffset:0;stroke-opacity:1"
       id="rect6832"
       width="100"
       height="570"
       x="6710"
       y="1157.3622"
       ry="0" />
    <path
       style="fill:url(#linearGradient7627);fill-opacity:1;stroke:none;stroke-width:1px;stroke-linecap:butt;stroke-linejoin:miter;stroke-opacity:1"
       d="m 6705,1729.3622 -15,133 140,0 -15,-133 -4.9303,-2 -100.1121,0 z"
       id="path6834"
       inkscape:connector-curvature="0"
       sodipodi:nodetypes="ccccccc" />
    <path
       style="fill:url(#linearGradient7619);fill-opacity:1;stroke:none;stroke-width:1;stroke-linecap:round;stroke-linejoin:miter;stroke-miterlimit:4;stroke-dasharray:none;stroke-dashoffset:0;stroke-opacity:1"
       d="m 6355,1862.375 c -24.93,0 -45,20.07 -45,45 0,24.93 20.07,45 45,45 l 810,0 c 24.93,0 45,-20.07 45,-45 0,-24.93 -20.07,-45 -45,-45 z"
       id="rect6836"
       inkscape:connector-curvature="0"
       sodipodi:nodetypes="csccscc" />
    <path
       style="fill:#000000;stroke:none;stroke-width:1px;stroke-linecap:butt;stroke-linejoin:miter;stroke-opacity:1"
       d="m 6350,1952.3622 10,10 800,0 10,-10 z"
       id="path6847"
       inkscape:connector-curvature="0" />
    <path
       style="fill:#333333;stroke:none;stroke-width:1px;stroke-linecap:butt;stroke-linejoin:miter;stroke-opacity:1"
       d="m 6691,1857.375 -336,5 405,0 405,0 -336,-5 -69,0 -69,0 z"
       id="path6064"
       inkscape:connector-curvature="0" />
    <circle
       style="fill:#43425c;fill-opacity:1;stroke:none;stroke-width:1;stroke-linecap:butt;stroke-linejoin:miter;stroke-miterlimit:4;stroke-dasharray:none;stroke-dashoffset:0;stroke-opacity:1"
       id="path8769"
       cx="6760"
       cy="527.36224"
       r="20.285686" />
    <path
       style="opacity:0.7;fill:#ffffff;fill-opacity:1;stroke:none;stroke-width:1;stroke-linecap:butt;stroke-linejoin:miter;stroke-miterlimit:4;stroke-dasharray:none;stroke-dashoffset:0;stroke-opacity:1;filter:url(#filter7454)"
       d="m 6773.7734,512.50391 a 20.285686,20.285686 0 0 1 6.5118,14.85742 20.285686,20.285686 0 0 1 -20.2852,20.28711 20.285686,20.285686 0 0 1 -12.123,-4.05274 20.285686,20.285686 0 0 0 13.7714,5.42578 20.285686,20.285686 0 0 0 20.2852,-20.28515 20.285686,20.285686 0 0 0 -8.1602,-16.23242 z"
       id="circle7451"
       inkscape:connector-curvature="0" />
    <path
       style="opacity:0.5;fill:#000000;fill-opacity:1;stroke:none;stroke-width:1;stroke-linecap:butt;stroke-linejoin:miter;stroke-miterlimit:4;stroke-dasharray:none;stroke-dashoffset:0;stroke-opacity:1;filter:url(#filter7467)"
       d="M 6760,507.07617 A 20.285686,20.285686 0 0 0 6739.7148,527.36133 20.285686,20.285686 0 0 0 6760,547.64844 20.285686,20.285686 0 0 0 6780.2852,527.36133 20.285686,20.285686 0 0 0 6760,507.07617 Z m 0,1.16211 a 19.123634,19.123634 0 0 1 19.123,19.12305 19.123634,19.123634 0 0 1 -19.123,19.125 19.123634,19.123634 0 0 1 -19.123,-19.125 19.123634,19.123634 0 0 1 19.123,-19.12305 z"
       id="circle7458"
       clip-path="url(#clipPath7473)"
       inkscape:connector-curvature="0" />
    <path
       style="opacity:0.3;fill:url(#linearGradient7554);fill-opacity:1;stroke:none;stroke-width:1;stroke-linecap:butt;stroke-linejoin:miter;stroke-miterlimit:4;stroke-dasharray:none;stroke-dashoffset:0;stroke-opacity:1"
       d="m 6670,42.375 c -3.5219,0 -7.0217,0.08812 -10.5,0.257812 l 0,-0.0078 c -0.2803,0.01302 -0.5637,0.01715 -0.8438,0.03125 -1.7944,0.09038 -3.5928,0.20899 -5.375,0.34375 -3.5642,0.269521 -7.0824,0.618714 -10.5937,1.0625 -1.1658,0.147749 -2.3404,0.302078 -3.5,0.46875 -0.5826,0.08355 -1.169,0.16171 -1.75,0.25 -0.2838,0.04324 -0.5603,0.11188 -0.8437,0.15625 -1.4574,0.227503 -2.928,0.461644 -4.375,0.71875 -1.5073,0.267786 -3.0044,0.544203 -4.5,0.84375 -0.2184,0.04371 -0.4383,0.08062 -0.6563,0.125 -0.9021,0.183984 -1.7897,0.367094 -2.6875,0.5625 -0.3048,0.06624 -0.6021,0.1512 -0.9062,0.21875 -0.9995,0.222151 -2.006,0.451303 -3,0.6875 -0.3209,0.07622 -0.6486,0.14108 -0.9688,0.21875 l 0,0.03125 0,0.09375 c -0.3794,0.09301 -0.7542,0.197942 -1.1328,0.292969 -0.78,0.19581 -1.5575,0.397098 -2.334,0.601562 -0.907,0.238625 -1.8126,0.480217 -2.7148,0.730469 -0.7677,0.213233 -1.5329,0.432628 -2.2969,0.654297 -0.9225,0.267181 -1.8427,0.538984 -2.7598,0.818359 -0.681,0.207808 -1.359,0.422222 -2.0371,0.636719 -1.0167,0.321165 -2.0313,0.646226 -3.041,0.982422 -0.549,0.182977 -1.0956,0.371232 -1.6426,0.558594 -0.6795,0.232644 -1.3648,0.453888 -2.041,0.693359 l 0,-0.15625 c -1.7611,0.618703 -3.511,1.27379 -5.25,1.9375 -1.5905,0.607031 -3.1785,1.199603 -4.75,1.84375 -0.1467,0.06014 -0.2909,0.12703 -0.4375,0.1875 -0.052,0.0214 -0.1043,0.04106 -0.1563,0.0625 -1.1293,0.467001 -2.2556,0.951529 -3.375,1.4375 -0.8712,0.37849 -1.7286,0.766355 -2.5937,1.15625 -1.3521,0.609049 -2.6947,1.238395 -4.0313,1.875 -0.1974,0.09409 -0.3966,0.18656 -0.5937,0.28125 -1.468,0.704868 -2.9264,1.418522 -4.375,2.15625 -0.062,0.03172 -0.1255,0.06197 -0.1875,0.09375 -0.7588,0.387427 -1.4966,0.791145 -2.25,1.1875 -0.7495,0.394411 -1.506,0.784329 -2.25,1.1875 -0.062,0.03338 -0.1255,0.06031 -0.1875,0.09375 -0.4098,0.222587 -0.8107,0.46227 -1.2187,0.6875 -1.2036,0.664107 -2.4051,1.344312 -3.5938,2.03125 -1.5917,0.919789 -3.1854,1.852359 -4.75,2.8125 l 0,0.3125 c -0.1218,0.07519 -0.2417,0.153083 -0.3633,0.228516 -1.6453,1.020752 -3.2763,2.062353 -4.8906,3.126953 -0.1354,0.08927 -0.2711,0.178 -0.4063,0.267578 -0.862,0.571388 -1.7192,1.148689 -2.5722,1.732422 -0.077,0.05263 -0.1537,0.105471 -0.2305,0.158203 -1.6579,1.137784 -3.2971,2.298653 -4.9199,3.482422 -0.1325,0.0966 -0.2643,0.194112 -0.3965,0.291015 -2.4505,1.79638 -4.8591,3.646135 -7.2266,5.544922 -0.2586,0.207428 -0.5177,0.414419 -0.7753,0.623047 -2.2917,1.855888 -4.5441,3.757739 -6.754,5.707031 -0.2874,0.253515 -0.5733,0.508606 -0.8593,0.763672 -2.1647,1.930581 -4.2888,3.905927 -6.3711,5.923827 -0.3175,0.30764 -0.6337,0.61615 -0.9492,0.92578 -1.1027,1.0821 -2.193,2.1751 -3.2715,3.28125 -0.2944,0.30192 -0.5902,0.60256 -0.8828,0.90625 -0.6029,0.62582 -1.1999,1.25734 -1.795,1.89063 -0.3542,0.3769 -0.7071,0.75523 -1.0586,1.13476 -0.9399,1.01522 -1.8691,2.04043 -2.789,3.07422 -0.3756,0.42201 -0.7528,0.84251 -1.125,1.26758 -0.5616,0.64145 -1.1181,1.28718 -1.6719,1.93555 -0.3506,0.41032 -0.6975,0.82326 -1.0449,1.23632 -0.7955,0.94592 -1.5824,1.89923 -2.3613,2.85938 -0.4691,0.57811 -0.9374,1.15703 -1.4004,1.74023 -0.452,0.56938 -0.9016,1.14065 -1.3477,1.71485 -0.4736,0.60947 -0.9412,1.22499 -1.4082,1.83984 -0.6553,0.86289 -1.3051,1.73017 -1.9473,2.60352 -0.4514,0.61388 -0.9008,1.22867 -1.3457,1.84765 -0.4049,0.56358 -0.8094,1.12754 -1.2089,1.69531 -0.7114,1.01072 -1.4156,2.02695 -2.1094,3.05079 -0.3587,0.52943 -0.7086,1.06476 -1.0625,1.59765 -0.4117,0.61967 -0.8214,1.24093 -1.2266,1.86524 -0.3879,0.59778 -0.7762,1.19488 -1.1582,1.79687 -0.6501,1.02424 -1.2911,2.05357 -1.9238,3.08985 -0.3324,0.54448 -0.6588,1.09286 -0.9863,1.64062 -0.4377,0.73175 -0.8719,1.46558 -1.3008,2.20312 -0.3102,0.53354 -0.6202,1.06699 -0.9258,1.60352 -0.6269,1.10027 -1.2441,2.2076 -1.8516,3.32031 -0.2896,0.53059 -0.5742,1.06428 -0.8593,1.59766 -0.4178,0.78136 -0.8302,1.56623 -1.2383,2.35351 -0.2659,0.51293 -0.5351,1.02365 -0.7969,1.53907 -0.5856,1.15285 -1.1578,2.31338 -1.7227,3.47851 -0.2524,0.52077 -0.5017,1.04322 -0.75,1.56641 -0.4219,0.88905 -0.8363,1.78178 -1.246,2.67773 -0.2084,0.45576 -0.4198,0.90967 -0.625,1.36719 -0.5626,1.2539 -1.1099,2.51624 -1.6485,3.7832 -0.1773,0.41719 -0.3527,0.83533 -0.5273,1.25391 -0.4939,1.1833 -0.9784,2.37211 -1.4512,3.56641 -0.078,0.19674 -0.161,0.39085 -0.2383,0.58789 -0.5225,1.3318 -1.0255,2.67248 -1.5215,4.01758 -0.1684,0.45683 -0.3346,0.9147 -0.5,1.37304 -0.4885,1.35394 -0.9702,2.71124 -1.4316,4.07813 -0.053,0.15573 -0.1021,0.31285 -0.1543,0.46875 -0.4154,1.24021 -0.8162,2.48772 -1.209,3.73828 -0.1477,0.47021 -0.295,0.94046 -0.4394,1.41211 -0.4204,1.37216 -0.8297,2.74867 -1.2227,4.13281 -0.075,0.2643 -0.1467,0.5302 -0.2207,0.79492 -0.3565,1.27483 -0.7002,2.55519 -1.0332,3.83985 -0.085,0.32663 -0.1688,0.6532 -0.252,0.98047 -0.3705,1.45837 -0.7284,2.922 -1.0683,4.39257 -0.073,0.31569 -0.1414,0.63299 -0.2129,0.94922 -0.2791,1.23316 -0.5473,2.46951 -0.8047,3.71094 -0.079,0.38275 -0.1591,0.76491 -0.2363,1.14844 -0.2935,1.45661 -0.5746,2.91915 -0.8379,4.38672 -0.062,0.34565 -0.1194,0.6928 -0.1797,1.03906 -0.2191,1.2573 -0.4282,2.51817 -0.625,3.7832 -0.056,0.35883 -0.114,0.71673 -0.168,1.07617 -0.2264,1.50688 -0.4344,3.01972 -0.6289,4.53711 -0.04,0.31015 -0.077,0.62106 -0.1152,0.93164 -0.1691,1.36776 -0.3259,2.73929 -0.4688,4.11524 -0.029,0.28147 -0.062,0.56194 -0.09,0.84375 -0.1522,1.52463 -0.2866,3.05557 -0.4063,4.58984 -0.031,0.39723 -0.057,0.7955 -0.086,1.19336 -0.1001,1.38409 -0.1903,2.77054 -0.2637,4.16211 -0.011,0.21514 -0.026,0.42922 -0.037,0.64453 -0.078,1.57099 -0.134,3.1484 -0.1777,4.72852 -0.01,0.37732 -0.019,0.75498 -0.027,1.13281 -0.036,1.60861 -0.06,3.22031 -0.06,4.83789 l 0,304.97461 0,0.0254 0,59.97461 0,0.0254 0,59.97461 0,0.0254 0,59.97461 0,0.0254 0,65 c 0,1.73017 0.023,3.45393 0.065,5.17383 0.013,0.5353 0.038,1.06728 0.055,1.60156 0.036,1.15527 0.074,2.31056 0.1289,3.46094 0.032,0.68123 0.075,1.35959 0.1133,2.03906 0.059,1.02905 0.1219,2.05709 0.1953,3.08203 0.05,0.70306 0.1069,1.40439 0.1641,2.10547 0.081,0.98767 0.1676,1.97336 0.2617,2.95703 0.067,0.70146 0.137,1.40218 0.211,2.10156 0.1083,1.02537 0.2247,2.04754 0.3476,3.06836 0.077,0.63988 0.1536,1.27992 0.2363,1.91797 0.1327,1.02264 0.2786,2.04072 0.4258,3.0586 0.098,0.67606 0.1908,1.35342 0.2949,2.02734 0.1671,1.08075 0.348,2.15728 0.5313,3.23242 0.093,0.54452 0.1784,1.09172 0.2754,1.63477 0.2905,1.62658 0.6002,3.24623 0.9277,4.85937 0.065,0.31892 0.137,0.63475 0.2031,0.95313 0.2725,1.31047 0.5531,2.61672 0.8497,3.91797 0.1218,0.53436 0.253,1.06487 0.3789,1.59765 0.2526,1.06955 0.5085,2.13812 0.7773,3.20117 0.156,0.61696 0.319,1.23097 0.4805,1.84571 0.2514,0.9575 0.5069,1.91321 0.7715,2.86523 0.1887,0.67935 0.3827,1.35669 0.5781,2.03321 0.264,0.91405 0.5326,1.82557 0.8086,2.73437 0.1954,0.64367 0.3923,1.28674 0.5937,1.92773 0.3097,0.9855 0.6295,1.96624 0.9532,2.94532 0.1826,0.55235 0.3617,1.10597 0.5488,1.65625 0.3819,1.12348 0.7775,2.24074 1.1777,3.35547 0.149,0.41479 0.2919,0.83253 0.4434,1.24609 1.1312,3.089 2.3336,6.14393 3.6035,9.16211 0.1269,0.30155 0.2604,0.59957 0.3887,0.90039 0.5006,1.17441 1.006,2.34464 1.5273,3.50781 0.2309,0.5153 0.4701,1.026 0.7051,1.53906 0.4376,0.95553 0.8787,1.90976 1.3301,2.85743 0.2711,0.56922 0.5481,1.13482 0.8242,1.70117 0.4216,0.86482 0.8462,1.72789 1.2793,2.58594 0.3062,0.6067 0.6158,1.21118 0.9277,1.81445 0.4421,0.85511 0.8922,1.70461 1.3457,2.55273 0.2988,0.55884 0.5967,1.11806 0.9004,1.67383 0.4811,0.88037 0.9716,1.75437 1.4649,2.62695 0.3025,0.5353 0.601,1.07314 0.9082,1.60547 0.5545,0.96118 1.1221,1.91385 1.6914,2.86524 0.2485,0.41532 0.4909,0.83461 0.7421,1.24804 0.8239,1.35537 1.6602,2.7023 2.5137,4.03711 0.1661,0.25973 0.3387,0.51451 0.5059,0.77344 0.7109,1.10111 1.4293,2.19651 2.1601,3.2832 0.2683,0.39892 0.5435,0.7925 0.8145,1.18946 0.6266,0.91799 1.2557,1.83482 1.8965,2.74218 0.362,0.51272 0.7311,1.02002 1.0976,1.5293 0.552,0.76697 1.1059,1.53191 1.668,2.29102 0.406,0.54835 0.8173,1.09251 1.2285,1.63672 0.5814,0.76933 1.1662,1.53591 1.7578,2.29687 0.3604,0.46355 0.7218,0.92631 1.086,1.38672 0.6571,0.83068 1.3227,1.65425 1.9921,2.47461 0.356,0.43626 0.711,0.87333 1.0704,1.30664 0.6515,0.78542 1.3119,1.56225 1.9746,2.33789 0.3899,0.45644 0.7761,0.91612 1.1699,1.36914 0.7879,0.90634 1.5875,1.80281 2.3906,2.69531 0.249,0.27667 0.4918,0.55867 0.7422,0.83399 1.0533,1.15807 2.1204,2.30344 3.1992,3.4375 0.4066,0.42743 0.8223,0.84555 1.2324,1.26953 0.7006,0.7241 1.4005,1.44818 2.1114,2.16211 0.4642,0.46632 0.9357,0.92478 1.4043,1.38672 0.6552,0.64581 1.3109,1.29056 1.9746,1.92773 0.5148,0.49436 1.0348,0.98355 1.5547,1.47266 0.6402,0.60223 1.2819,1.20267 1.9297,1.79687 0.541,0.49637 1.0865,0.9878 1.6328,1.47852 0.6189,0.55592 1.2416,1.10764 1.8672,1.65625 0.5804,0.50912 1.1618,1.01676 1.748,1.51953 0.6469,0.55482 1.2994,1.10338 1.9531,1.65039 0.5395,0.45148 1.077,0.90544 1.6211,1.35156 0.7463,0.61176 1.501,1.21287 2.2559,1.81446 0.5014,0.39965 0.9987,0.80409 1.5039,1.19922 0.7684,0.60099 1.5472,1.19081 2.3242,1.78124 1.1044,0.83928 2.2184,1.66669 3.3398,2.48438 0.5838,0.42552 1.1637,0.85578 1.752,1.27539 0.7235,0.51613 1.4552,1.02022 2.1856,1.52734 0.5735,0.39821 1.1449,0.79881 1.7226,1.19141 0.7356,0.49995 1.4784,0.98967 2.2207,1.48047 0.5699,0.37675 1.1391,0.75368 1.7129,1.125 0.7559,0.48922 1.5167,0.97146 2.2793,1.45117 0.5751,0.36173 1.1516,0.72185 1.7305,1.07813 0.7678,0.47262 1.5381,0.94133 2.3125,1.40429 0.569,0.34016 1.1403,0.67682 1.7129,1.01172 0.8205,0.48003 1.643,0.95663 2.4707,1.42578 0.5061,0.28683 1.0166,0.56688 1.5253,0.84961 0.8629,0.47964 1.7254,0.95996 2.5958,1.42774 0.4592,0.24675 0.9235,0.48508 1.3847,0.72851 3.5,1.84743 7.0552,3.60378 10.6699,5.25586 0.1,0.0457 0.1988,0.0932 0.2989,0.13867 1.026,0.46697 2.0608,0.91826 3.0957,1.36914 0.4544,0.19794 0.9072,0.39894 1.3633,0.59375 0.9153,0.39106 1.8357,0.77199 2.7578,1.1504 0.5572,0.22862 1.1141,0.45766 1.6738,0.68164 0.9507,0.38058 1.9056,0.75208 2.8633,1.11914 0.5004,0.19178 1.0016,0.38225 1.5039,0.57031 0.9739,0.36472 1.9508,0.72357 2.9316,1.07428 0.517,0.1848 1.0358,0.366 1.5547,0.5469 1.0147,0.3537 2.0309,0.7043 3.0527,1.0429 0.3759,0.1245 0.7541,0.2428 1.1309,0.3653 5.2811,1.7166 10.655,3.2314 16.1133,4.5332 0.2699,0.064 0.5383,0.132 0.8086,0.1953 1.1914,0.2791 2.3886,0.5419 3.5879,0.8008 0.366,0.079 0.7308,0.1611 1.0976,0.2382 1.1952,0.2513 2.395,0.4897 3.5977,0.7207 0.2128,0.041 0.4237,0.087 0.6367,0.127 -0.012,0 -0.023,-0.01 -0.035,-0.014 0.022,0 0.044,0.01 0.066,0.014 0,6e-4 0.01,0 0.01,0 6.9091,1.3035 13.9393,2.2693 21.0742,2.8828 0.1075,0.01 0.2148,0.02 0.3223,0.029 1.2669,0.1069 2.5372,0.2025 3.8105,0.2871 0.4487,0.03 0.8983,0.057 1.3477,0.084 1.0752,0.065 2.1509,0.1253 3.2305,0.1738 0.7393,0.034 1.4813,0.058 2.2226,0.084 0.8409,0.029 1.68,0.063 2.5235,0.082 1.6384,0.038 3.2801,0.062 4.9277,0.062 l 180,0 c 1.6476,0 3.2893,-0.024 4.9277,-0.062 0.8435,-0.019 1.6826,-0.053 2.5235,-0.082 0.7413,-0.026 1.4833,-0.05 2.2226,-0.084 1.0796,-0.048 2.1553,-0.1092 3.2305,-0.1738 0.4494,-0.028 0.899,-0.054 1.3477,-0.084 1.2733,-0.085 2.5436,-0.1802 3.8105,-0.2871 0.1075,-0.01 0.2148,-0.02 0.3223,-0.029 7.1612,-0.6157 14.2167,-1.5877 21.1504,-2.8985 -0.012,0 -0.023,0.01 -0.035,0.014 0.213,-0.04 0.4239,-0.086 0.6367,-0.127 1.2027,-0.231 2.4025,-0.4694 3.5977,-0.7207 0.3668,-0.077 0.7316,-0.1592 1.0976,-0.2382 1.1993,-0.2589 2.3965,-0.5217 3.5879,-0.8008 0.2703,-0.063 0.5387,-0.131 0.8086,-0.1953 5.4583,-1.3018 10.8322,-2.8166 16.1133,-4.5332 0.3768,-0.1225 0.755,-0.2408 1.1309,-0.3653 1.0218,-0.3386 2.038,-0.6892 3.0527,-1.0429 0.5189,-0.1809 1.0377,-0.3621 1.5547,-0.5469 0.9808,-0.35071 1.9577,-0.70956 2.9316,-1.07428 0.5023,-0.18806 1.0035,-0.37853 1.5039,-0.57031 0.9577,-0.36706 1.9126,-0.73856 2.8633,-1.11914 0.5597,-0.22398 1.1166,-0.45302 1.6738,-0.68164 0.9221,-0.37841 1.8425,-0.75934 2.7578,-1.1504 0.4561,-0.19481 0.9089,-0.39581 1.3633,-0.59375 1.044,-0.45484 2.0881,-0.90964 3.1231,-1.38085 0.091,-0.0414 0.1805,-0.0854 0.2715,-0.12696 3.6147,-1.65208 7.1699,-3.40843 10.6699,-5.25586 0.4612,-0.24343 0.9255,-0.48176 1.3847,-0.72851 0.8704,-0.46778 1.7329,-0.9481 2.5958,-1.42774 0.5087,-0.28273 1.0192,-0.56278 1.5253,-0.84961 0.8277,-0.46915 1.6502,-0.94575 2.4707,-1.42578 0.5726,-0.3349 1.1439,-0.67156 1.7129,-1.01172 0.7744,-0.46296 1.5447,-0.93167 2.3125,-1.40429 0.5789,-0.35628 1.1554,-0.7164 1.7305,-1.07813 0.7626,-0.47971 1.5234,-0.96195 2.2793,-1.45117 0.5738,-0.37132 1.143,-0.74825 1.7129,-1.125 0.7423,-0.4908 1.4851,-0.98052 2.2207,-1.48047 0.5777,-0.3926 1.1491,-0.7932 1.7226,-1.19141 0.7304,-0.50712 1.4621,-1.01121 2.1856,-1.52734 0.5883,-0.41961 1.1682,-0.84987 1.752,-1.27539 1.1214,-0.81769 2.2354,-1.6451 3.3398,-2.48438 0.777,-0.59043 1.5558,-1.18025 2.3242,-1.78124 0.5052,-0.39513 1.0025,-0.79957 1.5039,-1.19922 0.7549,-0.60159 1.5096,-1.2027 2.2559,-1.81446 0.5441,-0.44612 1.0816,-0.90008 1.6211,-1.35156 0.6537,-0.54701 1.3062,-1.09557 1.9531,-1.65039 0.5862,-0.50277 1.1676,-1.01041 1.748,-1.51953 0.6256,-0.54861 1.2483,-1.10033 1.8672,-1.65625 0.5463,-0.49072 1.0918,-0.98215 1.6328,-1.47852 0.6478,-0.5942 1.2895,-1.19464 1.9297,-1.79687 0.5199,-0.48911 1.0399,-0.9783 1.5547,-1.47266 0.6637,-0.63717 1.3194,-1.28192 1.9746,-1.92773 0.4686,-0.46194 0.9401,-0.9204 1.4043,-1.38672 0.7109,-0.71393 1.4108,-1.43801 2.1114,-2.16211 0.4101,-0.42398 0.8258,-0.8421 1.2324,-1.26953 1.0788,-1.13406 2.1459,-2.27943 3.1992,-3.4375 0.2504,-0.27532 0.4932,-0.55732 0.7422,-0.83399 0.8031,-0.8925 1.6027,-1.78897 2.3906,-2.69531 0.3938,-0.45302 0.78,-0.9127 1.1699,-1.36914 0.6627,-0.77564 1.3231,-1.55247 1.9746,-2.33789 0.3594,-0.43331 0.7144,-0.87038 1.0704,-1.30664 0.6694,-0.82036 1.335,-1.64393 1.9921,-2.47461 0.3642,-0.46041 0.7256,-0.92317 1.086,-1.38672 0.5916,-0.76096 1.1764,-1.52754 1.7578,-2.29687 0.4112,-0.54421 0.8225,-1.08837 1.2285,-1.63672 0.5621,-0.75911 1.116,-1.52405 1.668,-2.29102 0.3665,-0.50928 0.7356,-1.01658 1.0976,-1.5293 0.6408,-0.90736 1.2699,-1.82419 1.8965,-2.74218 0.271,-0.39696 0.5462,-0.79054 0.8145,-1.18946 0.7308,-1.08669 1.4492,-2.18209 2.1601,-3.2832 0.17,-0.26334 0.3448,-0.52296 0.5137,-0.78711 0.8505,-1.33046 1.6847,-2.67255 2.5059,-4.02344 0.2512,-0.41343 0.4936,-0.83272 0.7421,-1.24804 0.5693,-0.95139 1.1369,-1.90406 1.6914,-2.86524 0.3072,-0.53233 0.6057,-1.07017 0.9082,-1.60547 0.4933,-0.87258 0.9838,-1.74658 1.4649,-2.62695 0.3037,-0.55577 0.6016,-1.11499 0.9004,-1.67383 0.4535,-0.84812 0.9036,-1.69762 1.3457,-2.55273 0.3119,-0.60327 0.6215,-1.20775 0.9277,-1.81445 0.4331,-0.85805 0.8577,-1.72112 1.2793,-2.58594 0.2761,-0.56635 0.5531,-1.13195 0.8242,-1.70117 0.4514,-0.94767 0.8925,-1.9019 1.3301,-2.85743 0.235,-0.51306 0.4742,-1.02376 0.7051,-1.53906 0.5213,-1.16317 1.0267,-2.3334 1.5273,-3.50781 0.1283,-0.30082 0.2618,-0.59884 0.3887,-0.90039 1.2699,-3.01818 2.4723,-6.07311 3.6035,-9.16211 0.1515,-0.41356 0.2944,-0.8313 0.4434,-1.24609 0.4002,-1.11473 0.7958,-2.23199 1.1777,-3.35547 0.1871,-0.55028 0.3662,-1.1039 0.5488,-1.65625 0.3237,-0.97908 0.6435,-1.95982 0.9532,-2.94532 0.2014,-0.64099 0.3983,-1.28406 0.5937,-1.92773 0.276,-0.9088 0.5446,-1.82032 0.8086,-2.73437 0.1954,-0.67652 0.3894,-1.35386 0.5781,-2.03321 0.2646,-0.95202 0.5201,-1.90773 0.7715,-2.86523 0.1615,-0.61474 0.3245,-1.22875 0.4805,-1.84571 0.2688,-1.06305 0.5247,-2.13162 0.7773,-3.20117 0.1259,-0.53278 0.2571,-1.06329 0.3789,-1.59765 0.2966,-1.30125 0.5772,-2.6075 0.8497,-3.91797 0.066,-0.31838 0.1383,-0.63421 0.2031,-0.95313 0.3275,-1.61314 0.6372,-3.23279 0.9277,-4.85937 0.097,-0.54305 0.1825,-1.09025 0.2754,-1.63477 0.1833,-1.07514 0.3642,-2.15167 0.5313,-3.23242 0.1041,-0.67392 0.1971,-1.35128 0.2949,-2.02734 0.1472,-1.01788 0.2931,-2.03596 0.4258,-3.0586 0.083,-0.63805 0.1592,-1.27809 0.2363,-1.91797 0.1229,-1.02082 0.2393,-2.04299 0.3476,-3.06836 0.074,-0.69938 0.1439,-1.4001 0.211,-2.10156 0.094,-0.98367 0.1811,-1.96936 0.2617,-2.95703 0.057,-0.70108 0.1137,-1.40241 0.1641,-2.10547 0.073,-1.02494 0.1365,-2.05298 0.1953,-3.08203 0.039,-0.67947 0.081,-1.35783 0.1133,-2.03906 0.055,-1.15038 0.093,-2.30567 0.1289,-3.46094 0.017,-0.53428 0.042,-1.06626 0.055,-1.60156 0.041,-1.7199 0.065,-3.44366 0.065,-5.17383 l 0,-65 0,-0.0254 0,-59.97461 0,-0.0254 0,-59.97461 0,-0.0254 0,-59.97461 0,-0.0254 0,-304.97461 c 0,-1.60716 -0.025,-3.20833 -0.06,-4.80664 -0.01,-0.41244 -0.02,-0.8245 -0.031,-1.23633 -0.043,-1.55129 -0.097,-3.10009 -0.1738,-4.64258 -0.011,-0.22901 -0.027,-0.45673 -0.039,-0.68554 -0.074,-1.39543 -0.163,-2.78593 -0.2637,-4.17383 -0.028,-0.38422 -0.054,-0.76872 -0.084,-1.15235 -0.1201,-1.54005 -0.2554,-3.07707 -0.4082,-4.60742 -0.028,-0.27466 -0.06,-0.54792 -0.088,-0.82226 -0.1432,-1.37884 -0.2993,-2.75244 -0.4688,-4.12305 -0.039,-0.31379 -0.075,-0.62806 -0.1152,-0.94141 -0.1975,-1.54021 -0.4102,-3.07609 -0.6406,-4.60547 -0.046,-0.30465 -0.095,-0.60788 -0.1426,-0.9121 -0.1979,-1.27558 -0.4083,-2.54673 -0.6289,-3.81446 -0.067,-0.38745 -0.1336,-0.7754 -0.2032,-1.16211 -0.2644,-1.47092 -0.5431,-2.93656 -0.8378,-4.39648 -0.067,-0.33152 -0.1386,-0.66125 -0.2071,-0.99219 -0.2687,-1.2987 -0.5493,-2.59316 -0.8418,-3.88281 -0.063,-0.27909 -0.1231,-0.55923 -0.1875,-0.83789 -0.3425,-1.48237 -0.7026,-2.95777 -1.0761,-4.42774 -0.084,-0.32942 -0.1706,-0.65754 -0.2559,-0.98632 -0.3332,-1.28485 -0.6765,-2.56483 -1.0332,-3.83985 -0.073,-0.25999 -0.1412,-0.52167 -0.2149,-0.78125 -0.4038,-1.42245 -0.8269,-2.83825 -1.2597,-4.24804 -0.1202,-0.39139 -0.2429,-0.78148 -0.3653,-1.17188 -0.3876,-1.23661 -0.7836,-2.46881 -1.1933,-3.69531 -0.079,-0.23797 -0.156,-0.47726 -0.2363,-0.71485 -0.4752,-1.40565 -0.9688,-2.80336 -1.4727,-4.19531 -0.1275,-0.35222 -0.2574,-0.70336 -0.3867,-1.05469 -0.5226,-1.41982 -1.0533,-2.83521 -1.6055,-4.24023 -0.01,-0.0229 -0.018,-0.0455 -0.027,-0.0684 -0.5399,-1.37233 -1.1003,-2.73394 -1.668,-4.0918 -0.1608,-0.38456 -0.3214,-0.76895 -0.4844,-1.15234 -0.5248,-1.23444 -1.0579,-2.4635 -1.6054,-3.68555 -0.1736,-0.38731 -0.3516,-0.77215 -0.5274,-1.1582 -0.482,-1.05837 -0.9717,-2.11335 -1.4707,-3.16211 -0.2132,-0.44822 -0.4282,-0.89535 -0.6445,-1.3418 -0.6005,-1.23922 -1.2081,-2.47389 -1.832,-3.69922 -0.1678,-0.32948 -0.3404,-0.6559 -0.5098,-0.98437 -0.5291,-1.02554 -1.0679,-2.04504 -1.6133,-3.06055 -0.2167,-0.40351 -0.4331,-0.80708 -0.6523,-1.20898 -0.6534,-1.19757 -1.3144,-2.38912 -1.9903,-3.57227 -0.2413,-0.42248 -0.4883,-0.84109 -0.7324,-1.26172 -0.4988,-0.85921 -1.0031,-1.71504 -1.5137,-2.5664 -0.2807,-0.46824 -0.5614,-0.93651 -0.8457,-1.40235 -0.6846,-1.12151 -1.379,-2.23634 -2.084,-3.34375 -0.2892,-0.45439 -0.5824,-0.90543 -0.875,-1.35742 -0.5262,-0.81285 -1.0585,-1.62078 -1.5957,-2.42578 -0.2837,-0.42533 -0.5647,-0.85228 -0.8515,-1.27539 -0.736,-1.08569 -1.4826,-2.16345 -2.2383,-3.23437 -0.3342,-0.47368 -0.6737,-0.94332 -1.0117,-1.41407 -0.54,-0.75187 -1.0851,-1.4998 -1.6348,-2.24414 -0.3202,-0.43368 -0.6375,-0.86968 -0.9609,-1.30078 -0.7751,-1.03285 -1.5619,-2.05637 -2.3555,-3.07422 -0.3506,-0.44979 -0.7044,-0.89692 -1.0586,-1.34375 -0.6249,-0.78818 -1.2546,-1.57269 -1.8906,-2.35156 -0.2906,-0.35593 -0.5782,-0.71439 -0.8711,-1.06836 -0.8021,-0.96927 -1.6164,-1.92841 -2.4356,-2.88281 -0.4413,-0.51424 -0.8858,-1.02528 -1.332,-1.53516 -0.5527,-0.63149 -1.1098,-1.25808 -1.6699,-1.88281 -0.5809,-0.648 -1.1651,-1.29295 -1.7539,-1.9336 -0.6428,-0.69918 -1.2893,-1.3956 -1.9414,-2.08593 -0.4547,-0.48143 -0.9119,-0.96042 -1.3711,-1.4375 -0.6236,-0.64775 -1.253,-1.29002 -1.8848,-1.92969 -0.64,-0.64806 -1.2852,-1.29 -1.9336,-1.92969 -0.588,-0.58011 -1.1766,-1.15926 -1.7715,-1.73242 -0.5129,-0.49431 -1.0288,-0.98552 -1.5468,-1.474607 -0.5809,-0.548349 -1.1668,-1.091078 -1.7539,-1.632812 -0.8088,-0.746364 -1.6229,-1.487027 -2.4434,-2.220703 -0.5151,-0.460515 -1.0311,-0.919534 -1.5508,-1.375 -0.5681,-0.498007 -1.1373,-0.994404 -1.7109,-1.486328 -0.6525,-0.559559 -1.3113,-1.112442 -1.9707,-1.664063 -0.7764,-0.649513 -1.5578,-1.293243 -2.3438,-1.931641 -0.5603,-0.455078 -1.1224,-0.908043 -1.6875,-1.357422 -0.5576,-0.443446 -1.1155,-0.886363 -1.6777,-1.324218 -0.929,-0.723434 -1.8632,-1.440417 -2.8047,-2.148438 -0.6214,-0.467367 -1.2482,-0.928088 -1.875,-1.388672 -0.5036,-0.370029 -1.0086,-0.737895 -1.5156,-1.103515 -0.6196,-0.446799 -1.2386,-0.893817 -1.8633,-1.333985 -0.9228,-0.650175 -1.8514,-1.292163 -2.7852,-1.927734 -0.7288,-0.496158 -1.4637,-0.983535 -2.1992,-1.470703 -0.3914,-0.259296 -0.7844,-0.516705 -1.1777,-0.773438 -1.2569,-0.82047 -2.5233,-1.627839 -3.7988,-2.421875 -0.3788,-0.235758 -0.7544,-0.475577 -1.1348,-0.708984 -0.024,-0.01492 -0.05,-0.02807 -0.074,-0.04297 -7.8715,-4.826132 -16.0886,-9.145625 -24.6074,-12.917969 -0.4489,-0.200977 -0.8963,-0.404626 -1.3496,-0.601562 -0.4716,-0.20473 -0.9482,-0.402453 -1.4219,-0.605469 -0.3315,-0.141081 -0.6618,-0.284401 -0.9942,-0.423828 -0.3203,-0.135143 -0.6381,-0.27552 -0.9589,-0.408203 -0.052,-0.02144 -0.1044,-0.0411 -0.1563,-0.0625 -0.1466,-0.06047 -0.2908,-0.127356 -0.4375,-0.1875 -0.4478,-0.183551 -0.9034,-0.348688 -1.3535,-0.525391 -2.7907,-1.121589 -5.6117,-2.183491 -8.461,-3.1875 -0.062,-0.02195 -0.1233,-0.0465 -0.1855,-0.06836 -0.089,-0.03114 -0.1789,-0.05883 -0.2676,-0.08984 -6.4381,-2.252022 -13.0211,-4.200517 -19.7324,-5.828125 l 0,-0.01953 c -0.3202,-0.07767 -0.6479,-0.142534 -0.9688,-0.21875 -0.087,-0.02076 -0.1761,-0.03989 -0.2636,-0.06055 -0.8607,-0.203206 -1.7231,-0.401113 -2.5879,-0.59375 -0.049,-0.01101 -0.099,-0.02222 -0.1485,-0.0332 -0.3041,-0.06755 -0.6014,-0.152513 -0.9062,-0.21875 -0.8978,-0.195406 -1.7854,-0.378516 -2.6875,-0.5625 -0.218,-0.04438 -0.4379,-0.08129 -0.6563,-0.125 -0.394,-0.07892 -0.7911,-0.146681 -1.1855,-0.222656 -2.7679,-0.53802 -5.5511,-1.034053 -8.3574,-1.462891 -0.059,-0.01077 -0.1166,-0.02419 -0.1758,-0.0332 -0.581,-0.08829 -1.1674,-0.166452 -1.75,-0.25 -0.7118,-0.102306 -1.4309,-0.192772 -2.1484,-0.287109 C 6868.954,43.01983 6859.5554,42.375 6850,42.375 l -180,0 z"
       id="path7477"
       inkscape:connector-curvature="0" />
    <path
       style="color:#000000;font-style:normal;font-variant:normal;font-weight:normal;font-stretch:normal;font-size:medium;line-height:normal;font-family:Sans;-inkscape-font-specification:Sans;text-indent:0;text-align:start;text-decoration:none;text-decoration-line:none;letter-spacing:normal;word-spacing:normal;text-transform:none;direction:ltr;block-progression:tb;writing-mode:lr-tb;baseline-shift:baseline;text-anchor:start;display:inline;overflow:visible;visibility:visible;fill:#ffffff;fill-opacity:1;stroke:none;stroke-width:1;stroke-miterlimit:4;stroke-dasharray:none;marker:none;filter:url(#filter7585);enable-background:accumulate"
       d="m 6434.75,487.11133 a 17.50175,17.50175 0 0 0 -17.25,17.75 l 0,6 a 17.50175,17.50175 0 0 1 17.25,-17.75 17.50175,17.50175 0 0 1 17.75,17.75 l 0,-6 a 17.50175,17.50175 0 0 0 -17.75,-17.75 z m 650,0 a 17.50175,17.50175 0 0 0 -17.25,17.75 l 0,6 a 17.50175,17.50175 0 0 1 17.25,-17.75 17.50175,17.50175 0 0 1 17.75,17.75 l 0,-6 a 17.50175,17.50175 0 0 0 -17.75,-17.75 z m -632.25,477.75 0,6 c 0,26.04633 12.647,67.29387 38.8438,99.96877 26.1965,32.6746 64.4154,57.5312 118.6562,57.5312 l 150,0 150,0 c 54.2408,0 92.4596,-24.8565 118.6562,-57.5312 26.1968,-32.6749 38.8438,-73.92244 38.8438,-99.96877 l 0,-6 c 0,26.04633 -12.647,67.29387 -38.8438,99.96877 -26.1966,32.6747 -64.4154,57.5312 -118.6562,57.5312 l -150,0 -150,0 c -54.2408,0 -92.4597,-24.8566 -118.6562,-57.5312 C 6465.147,1032.1552 6452.5,990.90766 6452.5,964.86133 Z"
       id="path7570"
       inkscape:connector-curvature="0" />
  </g>
</svg>
